<svg xmlns="http://www.w3.org/2000/svg" width="30" height="31" fill="none">
  <path
    fill="#EFB034"
    d="M22.9355 13.8128c3.7544 0 6.798-3.0444 6.798-6.8 0-3.75551-3.0436-6.79997-6.798-6.79997s-6.798 3.04446-6.798 6.79997c0 3.7556 3.0436 6.8 6.798 6.8Z"
  />
  <path
    fill="#181626"
    d="M22.9355 30.1228c3.7544 0 6.798-3.0444 6.798-6.8 0-3.7555-3.0436-6.8-6.798-6.8s-6.798 3.0445-6.798 6.8c0 3.7556 3.0436 6.8 6.798 6.8ZM.429932 11.7728C.429932 5.38842 5.60403.21283 11.9865.21283V18.5728c0 6.3845-5.17406 11.56-11.556568 11.56v-18.36Z"
  />
</svg>